<svg width="777" height="160" viewBox="0 0 777 160" fill="none" xmlns="http://www.w3.org/2000/svg">
<g clip-path="url(#clip0_1_10)">
<path d="M105.6 78.5H78.1V43.9C78.2 42 76.8 40.4 74.9 40.3C73 40.2 71.4 41.6 71.3 43.5C71.3 43.6 71.3 43.7 71.3 43.9V78.5H43.8C41.4 78.5 39.4 80.5 39.5 83V114.4C39.5 116.8 41.4 118.8 43.8 118.8H105.6C108 118.8 109.9 116.8 109.9 114.4V83C109.9 80.6 108 78.6 105.6 78.5Z" fill="white"/>
<path d="M117.1 50.8C118.2 51.7 117.9 52.2 117.1 53.1C114.8 56.3 110.8 61.1 110.5 64C110.2 67.2 111.1 71.9 107.6 75.2C106.1 75.1 88.7 75.2 88.7 75.2C92.2 70.7 96.4 62.7 103.1 60.9C107.2 59.8 110.1 54.9 112.8 51C114.1 48.9 115.1 49.3 117.1 50.8Z" fill="white"/>
<path d="M97.4 59.1C95 60.6 93 62.6 91.3 64.8C87.7 69.3 83.8 75.2 83.8 75.2H82C84.4 66.4 80.5 60.3 84.3 57.9C86.9 56.3 88.1 58.8 91.7 56.9C96.3 54.6 97.4 59 97.4 59.1ZM120.7 67C121.3 67.4 121.6 68.1 121.5 68.8C121 71.5 124.8 73.7 122 75.7C119.2 77.7 119.9 79 118.3 79C116.3 79 117.3 76.5 112.7 75.1C113.7 73.3 114.2 72.6 114.4 67.3C116.4 66.3 118.7 66.2 120.7 67ZM46.7 50.8C51.2 47.9 50.4 54.5 52.5 53.3C53.6 52.6 54.7 53.2 54.8 54C55.1 56.1 52.4 59.9 52.5 62.3C52.5 62.4 52.4 62.5 52.3 62.5C51.5 62.5 50.6 62.6 49.9 62.9C48.8 63.3 47.7 63.8 46.7 64.5C44.5 63.6 42.3 62.5 40.3 61.3C38.7 60.4 38.3 59.7 38.2 58.3C38.2 56.7 39.5 56.3 39 55.3C38.3 53.8 37.6 52.1 38.4 50.6C38.9 49.8 39.7 49.2 40.6 49.1C43.7 49 44.2 52.4 46.7 50.8ZM34.9 57C35.1 57.3 35.2 57.7 35 58.1C34.2 59.6 34.8 61.2 35.9 62.7C37.7 65.2 42.8 66.6 45.1 67.4L44.5 69.5C40.4 68.3 36 68.3 31.9 69.6C31.9 69.6 29.7 70.6 28.3 69.3C27.3 68.5 27.2 67 28 66C28.1 65.9 28.2 65.8 28.3 65.7C28.3 65.7 25.2 63.7 26.6 60.8C27.1 59.5 28.4 58.7 29.8 58.8C29.5 57.3 30.2 55.8 31.6 55.1C32.4 54.7 33.4 54.8 34.1 55.3C34.4 56.1 34.7 56.5 34.9 57ZM43.6 72.9V75.2C38.6 75 36.4 76.8 35.1 80.7C33.7 85.9 25.3 83.7 28.1 76.7C30.4 71.8 38.2 71.2 43.6 72.9Z" fill="white"/>
<path d="M67.6 64.4C65.8 64.3 63.9 64.8 62.4 65.8C58.4 63.2 55.4 63.9 55.7 63.4C57.4 60.8 62.8 58.6 67.6 60.9C67.7 61 67.7 63.6 67.6 64.4ZM59.8 67.7C59.6 68 59.3 68.2 59.1 68.5C57.6 70.3 56.7 72.6 56.5 75H47C46.8 73.7 46.8 72.4 47 71.2C47.8 67.7 50.1 65.9 53.9 65.9C55.9 65.9 58 66.4 59.7 67.4C59.8 67.5 59.8 67.6 59.8 67.7C59.7 67.7 59.7 67.7 59.8 67.7ZM67.6 75.2H59.8C60 70.9 62.6 68.4 64.7 67.8C65.7 67.5 66.7 67.4 67.7 67.4L67.6 75.2Z" fill="white"/>
<path d="M75.9 142.4C110.086 142.4 137.8 114.91 137.8 81C137.8 47.0897 110.086 19.6 75.9 19.6C41.7136 19.6 14 47.0897 14 81C14 114.91 41.7136 142.4 75.9 142.4Z" stroke="white" stroke-width="1.47"/>
<path d="M202.9 76.3L193.2 54.2C191.4 49.8 187.2 46.9 182.4 46.8C176.8 46.8 172.9 50.7 171.8 57.1L164.3 99.8001C164.2 100.7 164.1 101.6 164.1 102.5C164.1 109.5 168.6 114.5 175 114.5C180.6 114.5 184.7 110.6 185.8 104.2L187.6 93.6L191.9 105.5C194.1 111.7 197.6 114.5 202.9 114.5C208 114.5 211.8 111.4 214 105.4L218.2 93.6L220.7 106.1C221.6 111.1 225.9 114.5 231.4 114.5C237.2 114.5 242 109.8 242 104C242 103.9 242 103.9 242 103.8C242 102.6 241.9 101.3 241.6 100.1L234.1 57.1C233.5 53.5 232.6 51.6 230.8 49.8C228.8 47.9 226.1 46.9 223.3 46.8C219.3 46.8 215.6 49.1 213.8 52.7L202.9 76.3ZM267.8 93.4V88.4H275.6C279 88.4 280.6 88 282.3 86.7C284.1 85.1 285.2 82.8 285.1 80.4C285.1 75.7 281.7 72.5 276.4 72.5H267.9V67.9H278.7C282.7 67.9 285 67.2 286.9 65.5C289.2 63.4 290.5 60.5 290.4 57.4C290.4 52.9 287.4 48.9 282.9 47.8C281.4 47.4 280.8 47.3 274.7 47.3H261.8C255.4 47.3 254.9 47.4 252.5 48.4C250.1 49.5 248.2 51.5 247.3 53.9C246.4 56 246.3 56.7 246.3 62.3V98.5C246.3 103.1 246.4 103.7 246.7 105.1C247.2 108.7 249.5 111.7 252.9 113.1C254.8 113.8 256.1 114 261.1 114H277.9C282.8 114 284.7 113.5 286.8 111.7C289 109.6 290.3 106.7 290.3 103.7C290.3 100.7 289 97.9 286.8 95.9C284.5 94 282.5 93.4 277.8 93.4H267.8ZM318.9 67.7C319.7 67.8 320.4 67.8 321.2 67.8C324.4 67.7 326.2 69 326.2 71.4C326.2 73.8 324.5 75 321.3 74.9H318.9V67.7ZM340.3 88.3001C345.3 82.6001 347.3 77.7 347.3 71.3C347.4 60.7 340.3 51.3 330.1 48.3C326.7 47.5 323.1 47.2 319.6 47.3H310.6C305.4 47.3 303.2 48 300.8 50.2C298.4 52.4 297.3 55.2 297.3 60V101.1C297.3 105.3 298.1 108.2 299.8 110.5C301.9 113 305 114.5 308.2 114.5C314.2 114.5 318.8 109.7 318.8 103.4V94.3001L327.7 109.4C329.5 112.6 332.9 114.6 336.6 114.5C342.5 114.6 347.3 109.9 347.4 104C347.4 103.9 347.4 103.8 347.4 103.7C347.4 101.2 346.7 98.7 345.3 96.6L340.3 88.3001ZM417.6 94.6C417.4 88.7 412.7 84.0001 406.8 83.8001C404 83.8001 401.3 85 399.3 87L397.1 89.4C394.6 92.1 391.2 93.7001 387.5 93.8001C380.3 93.8001 374.5 87.9 374.5 80.7C374.5 73.5 380.4 67.7 387.6 67.8C391.1 67.8 394.5 69.2 396.9 71.8L400 75.3C401.8 77 404.2 78 406.8 78C412.8 77.9 417.6 73 417.6 67C417.6 62.6 415 58.1 409.6 53.8C403.5 48.6 395.7 45.7 387.7 45.7C368.4 45.5 352.5 60.9001 352.3 80.3001C352.1 99.6001 367.5 115.5 386.9 115.7C395.6 115.8 404 112.7 410.5 106.9C415.1 102.8 417.6 98.6 417.6 94.6ZM452.2 89.4L455.5 81.4L458.8 89.4H452.2ZM445.6 105.3H465.6C468.6 112.1 471.6 114.5 476.6 114.5C482.6 114.5 487.5 109.6 487.5 103.6C487.5 101.8 487.1 99.9001 486.2 98.3001L465.6 53.5C463.9 49.4 459.9 46.8 455.5 46.8C451.2 46.8 447.3 49.4 445.6 53.4L425.1 97.7C424.2 99.5 423.8 101.5 423.7 103.5C423.5 109.4 428.2 114.3 434.1 114.5C434.2 114.5 434.3 114.5 434.4 114.5C439.6 114.5 442.8 111.8 445.6 105.3ZM514.3 67.8H516C520 67.8 522.3 68.2 524.3 69.2C528.6 71.4 531.3 75.9 531.3 80.7C531.3 84.9 529.3 88.8001 526 91.3001C523.5 93.1001 521.7 93.4 514.2 93.5L514.3 67.8ZM505.1 47.3C498.8 47.3 494.8 49.8 493.2 54.6C492.7 56.1 492.7 56.7 492.7 62.3V99C492.7 103.6 492.7 104.7 493.1 106.2C493.7 108.7 495.4 110.9 497.6 112.2C499.6 113.6 501.6 114 506.7 114H515.8C519.5 114.1 523.2 113.8 526.9 113.2C532.7 111.9 538 109.1 542.3 105.1C549 98.7 552.8 89.9 552.8 80.6C552.8 71.2 548.9 62.2 542 55.8C535.6 50 528.1 47.3 518.3 47.3H505.1ZM580.5 80.6C580.7 73.5 586.7 67.9 593.8 68.2C600.6 68.4 606.1 73.9 606.3 80.7C606.5 87.8 600.8 93.7 593.7 93.9C586.6 94.1 580.7 88.4001 580.5 81.3001C580.5 81.0001 580.5 80.8 580.5 80.6ZM558.8 80.3001C558.8 100 574.1 115.7 593.3 115.7C612.2 115.7 627.7 99.9 627.7 80.6C627.8 61.5 612.4 46 593.4 46C574.4 45.8 558.9 61.2001 558.8 80.3001ZM670.4 72.7L653.2 51.2C650.7 48.1 648.3 46.8 645.2 46.8C638.4 46.8 633.9 51.5 633.9 58.6V100.8C633.9 105.7 634.4 107.7 636.1 110.2C638.2 112.9 641.4 114.5 644.7 114.5C647.9 114.5 651 113 653 110.5C654.9 108.1 655.5 106.1 655.5 101.7V87.7L672.6 110C674.5 112.8 677.7 114.5 681.1 114.5C684.4 114.5 687.5 113 689.5 110.4C691.4 107.9 691.8 105.7 691.8 100.4V59.6C691.8 55.5 691.1 53.2 689.3 50.8C685.7 46.2 679.1 45.5 674.5 49.1C673.6 49.8 672.8 50.7 672.2 51.6C670.6 53.9 670.2 55.9 670.2 60.3L670.4 72.7ZM726.7 89.4L730 81.4L733.3 89.4H726.7ZM720.1 105.3H740.1C743.1 112.1 746.1 114.5 751.1 114.5C757.1 114.5 762 109.6 762 103.6C762 101.8 761.6 99.9001 760.7 98.3001L740.1 53.5C738.4 49.4 734.4 46.8 730 46.8C725.7 46.8 721.8 49.4 720.1 53.4L699.6 97.7C698.7 99.5 698.3 101.5 698.2 103.5C698 109.4 702.7 114.3 708.6 114.5C708.7 114.5 708.8 114.5 708.9 114.5C714.1 114.5 717.3 111.8 720.1 105.3Z" fill="white"/>
</g>
<defs>
<clipPath id="clip0_1_10">
<rect width="777" height="160" fill="white"/>
</clipPath>
</defs>
</svg>
