<svg width="598" height="71" viewBox="0 0 598 71" fill="none" xmlns="http://www.w3.org/2000/svg">
<path d="M38.9 30.7L29.2 8.60001C27.4 4.20001 23.2 1.30001 18.4 1.20001C12.8 1.20001 8.89997 5.10001 7.79997 11.5L0.299973 54.2001C0.199973 55.1 0.0999756 56 0.0999756 56.9C0.0999756 63.9 4.59997 68.9 11 68.9C16.6 68.9 20.7 65 21.8 58.6L23.6 48L27.9 59.9C30.1 66.1 33.6 68.9 38.9 68.9C44 68.9 47.8 65.8 50 59.8L54.2 48L56.7 60.5C57.6 65.5 61.9 68.9 67.4 68.9C73.2 68.9 78 64.2 78 58.4C78 58.3 78 58.3 78 58.2C78 57 77.9 55.7 77.6 54.5L70.1 11.5C69.5 7.90001 68.6 6.00001 66.8 4.20001C64.8 2.30001 62.1 1.30001 59.3 1.20001C55.3 1.20001 51.6 3.50001 49.8 7.10001L38.9 30.7ZM103.8 47.8V42.8H111.6C115 42.8 116.6 42.4 118.3 41.1C120.1 39.5 121.2 37.2 121.1 34.8C121.1 30.1 117.7 26.9 112.4 26.9H103.9V22.3H114.7C118.7 22.3 121 21.6 122.9 19.9C125.2 17.8 126.5 14.9 126.4 11.8C126.4 7.30001 123.4 3.30001 118.9 2.20001C117.4 1.80001 116.8 1.70001 110.7 1.70001H97.8C91.4 1.70001 90.9 1.80001 88.5 2.80001C86.1 3.90001 84.2 5.90001 83.3 8.30001C82.4 10.4 82.3 11.1 82.3 16.7V52.9C82.3 57.5 82.4 58.1 82.7 59.5C83.2 63.1 85.5 66.1 88.9 67.5C90.8 68.2 92.1 68.4 97.1 68.4H113.9C118.8 68.4 120.7 67.9 122.8 66.1C125 64 126.3 61.1 126.3 58.1C126.3 55.1 125 52.3 122.8 50.3C120.5 48.4 118.5 47.8 113.8 47.8H103.8ZM154.9 22.1C155.7 22.2 156.4 22.2 157.2 22.2C160.4 22.1 162.2 23.4 162.2 25.8C162.2 28.2 160.5 29.4 157.3 29.3H154.9V22.1ZM176.3 42.7001C181.3 37.0001 183.3 32.1 183.3 25.7C183.4 15.1 176.3 5.70001 166.1 2.70001C162.7 1.90001 159.1 1.60001 155.6 1.70001H146.6C141.4 1.70001 139.2 2.40001 136.8 4.60001C134.4 6.80001 133.3 9.60001 133.3 14.4V55.5C133.3 59.7 134.1 62.6 135.8 64.9C137.9 67.4 141 68.9 144.2 68.9C150.2 68.9 154.8 64.1 154.8 57.8V48.7001L163.7 63.8C165.5 67 168.9 69 172.6 68.9C178.5 69 183.3 64.3 183.4 58.4C183.4 58.3 183.4 58.2 183.4 58.1C183.4 55.6 182.7 53.1 181.3 51L176.3 42.7001ZM253.6 49C253.4 43.1 248.7 38.4001 242.8 38.2001C240 38.2001 237.3 39.4 235.3 41.4L233.1 43.8C230.6 46.5 227.2 48.1001 223.5 48.2001C216.3 48.2001 210.5 42.3 210.5 35.1C210.5 27.9 216.4 22.1 223.6 22.2C227.1 22.2 230.5 23.6 232.9 26.2L236 29.7C237.8 31.4 240.2 32.4 242.8 32.4C248.8 32.3 253.6 27.4 253.6 21.4C253.6 17 251 12.5 245.6 8.20001C239.5 3.00001 231.7 0.10001 223.7 0.10001C204.4 -0.0999904 188.5 15.3001 188.3 34.7001C188.1 54.0001 203.5 69.9 222.9 70.1C231.6 70.2 240 67.1 246.5 61.3C251.1 57.2 253.6 53 253.6 49ZM288.2 43.8L291.5 35.8L294.8 43.8H288.2ZM281.6 59.7H301.6C304.6 66.5 307.6 68.9 312.6 68.9C318.6 68.9 323.5 64 323.5 58C323.5 56.2 323.1 54.3001 322.2 52.7001L301.6 7.90001C299.9 3.80001 295.9 1.20001 291.5 1.20001C287.2 1.20001 283.3 3.80001 281.6 7.80001L261.1 52.1C260.2 53.9 259.8 55.9 259.7 57.9C259.5 63.8 264.2 68.7 270.1 68.9C270.2 68.9 270.3 68.9 270.4 68.9C275.6 68.9 278.8 66.2 281.6 59.7ZM350.3 22.2H352C356 22.2 358.3 22.6 360.3 23.6C364.6 25.8 367.3 30.3 367.3 35.1C367.3 39.3 365.3 43.2001 362 45.7001C359.5 47.5001 357.7 47.8 350.2 47.9L350.3 22.2ZM341.1 1.70001C334.8 1.70001 330.8 4.20001 329.2 9.00001C328.7 10.5 328.7 11.1 328.7 16.7V53.4C328.7 58 328.7 59.1 329.1 60.6C329.7 63.1 331.4 65.3 333.6 66.6C335.6 68 337.6 68.4 342.7 68.4H351.8C355.5 68.5 359.2 68.2 362.9 67.6C368.7 66.3 374 63.5 378.3 59.5C385 53.1 388.8 44.3 388.8 35C388.8 25.6 384.9 16.6 378 10.2C371.6 4.40001 364.1 1.70001 354.3 1.70001H341.1ZM416.5 35C416.7 27.9 422.7 22.3 429.8 22.6C436.6 22.8 442.1 28.3 442.3 35.1C442.5 42.2 436.8 48.1 429.7 48.3C422.6 48.5 416.7 42.8001 416.5 35.7001C416.5 35.4001 416.5 35.2 416.5 35ZM394.8 34.7001C394.8 54.4 410.1 70.1 429.3 70.1C448.2 70.1 463.7 54.3 463.7 35C463.8 15.9 448.4 0.400009 429.4 0.400009C410.4 0.200009 394.9 15.6001 394.8 34.7001ZM506.4 27.1L489.2 5.60001C486.7 2.50001 484.3 1.20001 481.2 1.20001C474.4 1.20001 469.9 5.90001 469.9 13V55.2C469.9 60.1 470.4 62.1 472.1 64.6C474.2 67.3 477.4 68.9 480.7 68.9C483.9 68.9 487 67.4 489 64.9C490.9 62.5 491.5 60.5 491.5 56.1V42.1L508.6 64.4C510.5 67.2 513.7 68.9 517.1 68.9C520.4 68.9 523.5 67.4 525.5 64.8C527.4 62.3 527.8 60.1 527.8 54.8V14C527.8 9.90001 527.1 7.60001 525.3 5.20001C521.7 0.600008 515.1 -0.0999925 510.5 3.50001C509.6 4.20001 508.8 5.10001 508.2 6.00001C506.6 8.30001 506.2 10.3 506.2 14.7L506.4 27.1ZM562.7 43.8L566 35.8L569.3 43.8H562.7ZM556.1 59.7H576.1C579.1 66.5 582.1 68.9 587.1 68.9C593.1 68.9 598 64 598 58C598 56.2 597.6 54.3001 596.7 52.7001L576.1 7.90001C574.4 3.80001 570.4 1.20001 566 1.20001C561.7 1.20001 557.8 3.80001 556.1 7.80001L535.6 52.1C534.7 53.9 534.3 55.9 534.2 57.9C534 63.8 538.7 68.7 544.6 68.9C544.7 68.9 544.8 68.9 544.9 68.9C550.1 68.9 553.3 66.2 556.1 59.7Z" fill="#9ABD96"/>
</svg>
